# xmcd
#
# Track frame offsets:
#	150
#	22532
#	37435
#	56107
#	71395
#	83754
#	99417
#	113725
#	133317
#	157980
#	172255
#	189490
#	201950
#	223377
#
# Disc length: 3152 seconds
#
# Revision: 2
# Processed by: cddbd v1.5.2PL0 Copyright (c) Steve Scherf et al.
# Submitted via: audiograbber 1.80.04
#
DISCID=cc0c4e0e
DTITLE=Emilio Santiago - Melhor de 2 - Emilio Santiago
DYEAR=2000
DGENRE=MPB e Samba
TTITLE0=Emílio Santiago - Saigon
TTITLE1=Emílio Santiago - Dois Pra lá, dois pra cá - Qualquer Coisa
TTITLE2=Emílio Santiago - João Nogueira
TTITLE3=Emílio Santiago - Pelo Amor de Deus
TTITLE4=Emílio Santiago - Trocando em Miúdos
TTITLE5=Emílio Santiago - Tá Delícia, Tá Gostoso - Mulheres
TTITLE6=Emílio Santiago - Aquarela Brasileira - Mulher Brasileira - Nega de Oba
TTITLE6=luaê
TTITLE7=Emílio Santiago - A Lua e Eu - Juventude Transviada
TTITLE8=Emílio Santiago - Anos Dourados - Eu sei que vou te Amar
TTITLE9=Emílio Santiago - Mestre Sala dos Mares - De frente pro Crime - Kid Cav
TTITLE9=aquinho
TTITLE10=Emílio Santiago - Preciso dizer que te amo
TTITLE11=Emílio Santiago - As Rosas não falam
TTITLE12=Emílio Santiago - Logo Agora
TTITLE13=Emílio Santiago - Alcione
EXTD=
EXTT0=
EXTT1=
EXTT2=
EXTT3=
EXTT4=
EXTT5=
EXTT6=
EXTT7=
EXTT8=
EXTT9=
EXTT10=
EXTT11=
EXTT12=
EXTT13=
PLAYORDER=
